<svg xmlns="http://www.w3.org/2000/svg" viewBox="0 0 62.36 62.36"><defs><style>.cls-1{fill:#fff;}.cls-2{font-size:11px;font-family:MyriadPro-Regular, Myriad Pro;}.cls-2,.cls-3{fill:#05145c;}</style></defs><g id="Layer_2" data-name="Layer 2"><g id="Layer_2-2" data-name="Layer 2"><path class="cls-1" d="M7.33,2.86A4.64,4.64,0,0,0,2.68,7.47V54.69A4.64,4.64,0,0,0,7.33,59.3H55a4.64,4.64,0,0,0,4.65-4.61V7.47A4.64,4.64,0,0,0,55,2.86Z"/><text class="cls-2" transform="translate(25.76 14.95)">L3</text><polygon class="cls-3" points="16.86 37.38 7.41 42.84 16.86 48.3 16.86 45.03 31.18 45.03 31.18 40.65 16.86 40.65 16.86 37.38"/><polygon class="cls-3" points="16.86 29.48 31.18 29.48 31.18 25.11 16.86 25.11 16.86 21.84 7.41 27.3 16.86 32.75 16.86 29.48"/><polygon class="cls-3" points="45.51 32.88 31.18 32.88 31.18 37.26 45.51 37.26 45.51 40.52 54.95 35.07 45.51 29.61 45.51 32.88"/><polygon class="cls-3" points="45.51 24.98 54.95 19.52 45.51 14.07 45.51 17.33 31.18 17.33 31.18 21.71 45.51 21.71 45.51 24.98"/><path class="cls-3" d="M8.75,4.38A4.37,4.37,0,0,0,4.38,8.75V53.61A4.38,4.38,0,0,0,8.75,58H53.61A4.39,4.39,0,0,0,58,53.61V8.75a4.38,4.38,0,0,0-4.38-4.37Zm44.86,58H8.75A8.76,8.76,0,0,1,0,53.61V8.75A8.77,8.77,0,0,1,8.75,0H53.61a8.76,8.76,0,0,1,8.75,8.75V53.61a8.75,8.75,0,0,1-8.75,8.75"/></g></g></svg>