<svg xmlns="http://www.w3.org/2000/svg" viewBox="0 0 42.52 71.79"><defs><style>.cls-1{fill:#05145c;}</style></defs><g id="Layer_2" data-name="Layer 2"><g id="Layer_2-2" data-name="Layer 2"><path class="cls-1" d="M34.54,67.8H8a4,4,0,0,1-4-4V60.42H38.53v3.39a4,4,0,0,1-4,4M8,4H34.54a4,4,0,0,1,4,4v3.39H4V8A4,4,0,0,1,8,4M4,15.36H38.53V56.43H4ZM34.54,0H8A8,8,0,0,0,0,8V63.81a8,8,0,0,0,8,8H34.54a8,8,0,0,0,8-8V8a8,8,0,0,0-8-8"/><path class="cls-1" d="M39.86,23H2.91a1.95,1.95,0,0,0,0,3.9h37a1.95,1.95,0,1,0,0-3.9"/><path class="cls-1" d="M39.86,35.2H2.91a1.95,1.95,0,0,0,0,3.9h37a1.95,1.95,0,1,0,0-3.9"/><path class="cls-1" d="M34.79,50.23H23.39a1.95,1.95,0,0,0,0,3.9h11.4a2,2,0,0,0,0-3.9"/><path class="cls-1" d="M34.74,17.3a1.94,1.94,0,1,0,1.94,1.94,1.94,1.94,0,0,0-1.94-1.94"/><path class="cls-1" d="M34.74,29.48a1.94,1.94,0,1,0,1.94,1.94,1.94,1.94,0,0,0-1.94-1.94"/><path class="cls-1" d="M34.74,5.67a1.94,1.94,0,1,0,1.94,1.94,1.94,1.94,0,0,0-1.94-1.94"/><path class="cls-1" d="M23.87,17.3a1.94,1.94,0,1,0,1.94,1.94,1.93,1.93,0,0,0-1.94-1.94"/><path class="cls-1" d="M23.87,29.48a1.94,1.94,0,1,0,1.94,1.94,1.93,1.93,0,0,0-1.94-1.94"/><path class="cls-1" d="M23.87,5.67a1.94,1.94,0,1,0,1.94,1.94,1.93,1.93,0,0,0-1.94-1.94"/><path class="cls-1" d="M29.31,17.3a1.94,1.94,0,1,0,1.93,1.94,1.94,1.94,0,0,0-1.93-1.94"/><path class="cls-1" d="M29.31,29.48a1.94,1.94,0,1,0,1.93,1.94,1.94,1.94,0,0,0-1.93-1.94"/><path class="cls-1" d="M29.31,5.67a1.94,1.94,0,1,0,1.93,1.94,1.94,1.94,0,0,0-1.93-1.94"/></g></g></svg>